<svg id="Layer_1" data-name="Layer 1" xmlns="http://www.w3.org/2000/svg" xmlns:xlink="http://www.w3.org/1999/xlink" viewBox="0 0 165.98721 165.95604"><defs><style>.cls-1{fill:#353535;}.cls-2{fill:url(#linear-gradient);}</style><linearGradient id="linear-gradient" x1="458.42007" y1="508.63736" x2="623.93374" y2="508.63736" gradientUnits="userSpaceOnUse"><stop offset="0" stop-color="#009ed2"/><stop offset="1" stop-color="#1b4587"/></linearGradient></defs><path class="cls-1" d="M624.30922,478.09153c0,8.36674-.19187,16.73985.0852,25.0974.12844,3.87264-.64707,5.4398-4.97922,5.30739-10.78115-.32951-21.581-.21985-32.36942-.04505-3.5242.05711-4.82108-.85777-5.19085-4.67624-1.79614-18.54425-16.81294-33.45321-35.74782-35.6848-3.51105-.4138-4.9534-1.44859-4.88337-5.21544.20445-11.00446.12094-22.01723-.0451-33.0238-.04663-3.09165.83441-4.22533,4.08284-4.19089,17.17512.1819,34.36388-.219,51.52529.3139,15.29733.47494,27.04812,12.98644,27.441,28.33978.20267,7.921.03566,15.85151.03566,23.77775Z" transform="translate(-458.42007 -425.65934)"/><path class="cls-2" d="M535.65565,447.18988c0,5.28162-.181,10.57159.06165,15.84208.1704,3.70138-1.02394,5.87167-4.83561,6.424-15.7247,2.27873-31.6885,21.57081-30.70156,40.29945,1.06412,20.19276,15.26062,34.85409,34.58036,39.37683,17.396,4.07236,42.35464-10.46963,45.90263-29.46208.757-4.05211,2.70406-5.35143,6.73454-5.26222,10.56072.23392,21.13113.164,31.69548.03464,3.84265-.047,5.37263.59981,4.67844,5.227-5.45928,36.39141-32.32085,65.2607-69.18371,70.823-32.076,4.83994-59.28985-6.00211-79.13-31.84375-36.64-47.72364-11.16164-117.64808,47.57191-130.609,13.84126-3.05443,12.56624-5.88369,12.68153,9.90713.02252,3.08084.00323,6.16193.00323,9.24294Z" transform="translate(-458.42007 -425.65934)"/></svg>