<svg id="iconfinder_2993685_brand_brands_google_logo_logos_icon" xmlns="http://www.w3.org/2000/svg" xmlns:xlink="http://www.w3.org/1999/xlink" width="32" height="32" viewBox="0 0 32 32">
  <defs>
    <linearGradient id="linear-gradient" y1="0.5" x2="1" y2="0.5" gradientUnits="objectBoundingBox">
      <stop offset="0" stop-color="#fff" stop-opacity="0.2"/>
      <stop offset="1" stop-color="#fff" stop-opacity="0"/>
    </linearGradient>
  </defs>
  <path id="Path_2234" data-name="Path 2234" d="M15.538,6.667a9.283,9.283,0,0,1,5.715,1.965L26.1,4.005A15.969,15.969,0,0,0,1.386,8.546L6.778,12.8A9.328,9.328,0,0,1,15.538,6.667Z" transform="translate(0.462)" fill="#f44336"/>
  <path id="Path_2235" data-name="Path 2235" d="M27.861,14.836a15.869,15.869,0,0,0,.139-2A16.047,16.047,0,0,0,27.647,9.5H12v6.667h8.648a9.429,9.429,0,0,1-3.531,4.426l5.413,4.273A15.983,15.983,0,0,0,27.861,14.836Z" transform="translate(4 3.167)" fill="#2196f3"/>
  <path id="Path_2236" data-name="Path 2236" d="M6.667,13.863a9.294,9.294,0,0,1,.574-3.2L1.848,6.41a15.945,15.945,0,0,0-.037,14.831l5.4-4.263A9.3,9.3,0,0,1,6.667,13.863Z" transform="translate(0 2.137)" fill="#ffc107"/>
  <path id="Path_2237" data-name="Path 2237" d="M15.547,20.555a9.329,9.329,0,0,1-8.79-6.219L1.358,18.6a15.975,15.975,0,0,0,24.719,4.655l-5.413-4.273A9.109,9.109,0,0,1,15.547,20.555Z" transform="translate(0.453 4.779)" fill="#00b060"/>
  <path id="Path_2238" data-name="Path 2238" d="M14.984,25.01A16.555,16.555,0,0,1,3.048,19.971a15.945,15.945,0,0,0,23.787.093A16.541,16.541,0,0,1,14.984,25.01Z" transform="translate(1.016 6.657)" opacity="0.1"/>
  <path id="Path_2239" data-name="Path 2239" d="M12,14.25v.333h8.648l.135-.333Z" transform="translate(4 4.75)" opacity="0.1"/>
  <path id="Path_2240" data-name="Path 2240" d="M23.994,12.21c0-.066.007-.13.007-.2,0-.019,0-.037,0-.055C24,12.042,23.994,12.126,23.994,12.21Z" transform="translate(7.998 3.986)" fill="#e6e6e6"/>
  <path id="Path_2241" data-name="Path 2241" d="M12,9.5v.333H27.714c-.021-.11-.044-.224-.067-.333Z" transform="translate(4 3.167)" fill="#fff" opacity="0.2"/>
  <path id="Path_2242" data-name="Path 2242" d="M31.647,12.667H16v6.667h8.648a9.321,9.321,0,1,1-3.6-11.146c.223.145.454.281.664.444l4.85-4.627-.109-.084a15.933,15.933,0,1,0,5.192,8.745Z" fill="url(#linear-gradient)"/>
  <path id="Path_2243" data-name="Path 2243" d="M19.385,6.853A9.291,9.291,0,0,0,5,14.665c0,.056,0,.1,0,.156A9.29,9.29,0,0,1,19.385,7.186c.223.145.454.281.664.444L24.9,3,20.048,7.3C19.839,7.134,19.608,7,19.385,6.853Z" transform="translate(1.667 1.001)" opacity="0.1"/>
  <path id="Path_2244" data-name="Path 2244" d="M16,.333A15.9,15.9,0,0,1,26.372,4.189l.192-.183-.147-.128A15.772,15.772,0,0,0,16,0,16,16,0,0,0,0,16c0,.056.008.111.008.167A16,16,0,0,1,16,.333Z" fill="#fff" opacity="0.2"/>
</svg>
