<svg xmlns="http://www.w3.org/2000/svg" width="30.555" height="27.598" viewBox="0 0 30.555 27.598">
  <g id="Group_3" data-name="Group 3" transform="translate(-1218.564 644.156)">
    <path id="Path_5" data-name="Path 5" d="M1290.891-498.881c-.317.452-.606.6-.976.468a2.426,2.426,0,0,1-.418-.249c-.089.691-.155,1.389-.273,2.078a13.851,13.851,0,0,1-10.662,11,13.843,13.843,0,0,1-14.389-5.761.968.968,0,0,1,.168-1.4.963.963,0,0,1,1.4.305l.086.122a11.812,11.812,0,0,0,6.538,4.667,11.929,11.929,0,0,0,15.014-9.5c.079-.5.124-1,.186-1.514a3.315,3.315,0,0,1-.537.148.707.707,0,0,1-.714-.436.686.686,0,0,1,.136-.8c.5-.511,1.005-1.019,1.52-1.517a.709.709,0,0,1,1.044-.033c.584.554,1.146,1.131,1.713,1.7a1.694,1.694,0,0,1,.168.237Z" transform="translate(-41.773 -131.278)" fill="#707070"/>
    <path id="Path_6" data-name="Path 6" d="M1334.868-554.155q0,2.683,0,5.367a1.647,1.647,0,0,1-1.762,1.775q-5.4,0-10.793,0a1.642,1.642,0,0,1-1.759-1.747q0-5.411,0-10.823a1.637,1.637,0,0,1,1.731-1.744q5.427,0,10.853,0a1.639,1.639,0,0,1,1.73,1.746Q1334.871-556.868,1334.868-554.155Zm-5.25-.031a1.912,1.912,0,0,0-1.931-1.893,1.911,1.911,0,0,0-1.886,1.908,1.912,1.912,0,0,0,1.915,1.909A1.914,1.914,0,0,0,1329.618-554.185Z" transform="translate(-93.862 -76.228)" fill="#707070"/>
    <path id="Path_7" data-name="Path 7" d="M1221.891-630.821c.126-.082.187-.127.253-.165a.747.747,0,0,1,.948.151.714.714,0,0,1,0,.956q-.823.863-1.687,1.685a.688.688,0,0,1-.974-.021c-.588-.564-1.162-1.143-1.733-1.725a.964.964,0,0,1,.008-1,.75.75,0,0,1,1-.091c.085.065.161.141.277.243.049-.466.088-.893.139-1.32a13.812,13.812,0,0,1,10.218-11.6,13.821,13.821,0,0,1,15.014,5.7.948.948,0,0,1-.225,1.344.948.948,0,0,1-1.355-.283,11.765,11.765,0,0,0-7.326-5.043,11.929,11.929,0,0,0-14.355,9.583C1222.012-631.906,1221.964-631.393,1221.891-630.821Z" fill="#707070"/>
  </g>
</svg>
