<svg xmlns="http://www.w3.org/2000/svg" width="20.719" height="19.607" viewBox="0 0 20.719 19.607">
  <g id="Group_2" data-name="Group 2" transform="translate(-1602.009 23.599)">
    <path id="Path_1" data-name="Path 1" d="M1711.842-4.37a2.706,2.706,0,0,0,.344-1.423q-.01-3.6,0-7.209a2.62,2.62,0,0,0-.39-1.544,15.975,15.975,0,0,0,2.333-4.365,3.709,3.709,0,0,0,.218-1.145c.025-.591-.027-1.185-.036-1.777a1.623,1.623,0,0,1,.9-1.553,1.632,1.632,0,0,1,1.77.1,3.5,3.5,0,0,1,1.6,3.733,25.089,25.089,0,0,1-.645,2.615c-.111.411.008.6.44.6h5.246a1.985,1.985,0,0,1,1.89,1.173,2.027,2.027,0,0,1-.209,2.2c-.026.038-.057.073-.086.108l-.1.117a2.03,2.03,0,0,1,.58,1.729,1.854,1.854,0,0,1-1.1,1.425,1.968,1.968,0,0,1,.134,1.528,1.889,1.889,0,0,1-1.017,1.128,5.023,5.023,0,0,1,.212.659A1.957,1.957,0,0,1,1722.052-4c-.385.012-.77,0-1.155,0q-3.79,0-7.58,0A2.948,2.948,0,0,1,1711.842-4.37Z" transform="translate(-103.009)" fill="#707070"/>
    <path id="Path_2" data-name="Path 2" d="M1602.01,123.444q0-2.449,0-4.9c0-.409.112-.521.52-.521q2.114,0,4.229,0a1.588,1.588,0,0,1,1.675,1.664q0,3.766,0,7.532a1.587,1.587,0,0,1-1.675,1.663q-2.126,0-4.252,0c-.379,0-.5-.118-.5-.5Q1602.009,125.916,1602.01,123.444Z" transform="translate(0 -132.881)" fill="#707070"/>
    <path id="Path_3" data-name="Path 3" d="M1649.413-18.646c-.211,0-.347-.162-.365-.422a1.658,1.658,0,0,0-1.193-1.534,2.755,2.755,0,0,0-.454-.071.384.384,0,0,1-.38-.384.378.378,0,0,1,.381-.357,1.657,1.657,0,0,0,1.647-1.654.376.376,0,0,1,.364-.374.358.358,0,0,1,.371.364,1.69,1.69,0,0,0,1.664,1.668.363.363,0,0,1,.369.367.362.362,0,0,1-.37.366,1.689,1.689,0,0,0-1.662,1.668A.362.362,0,0,1,1649.413-18.646Z" transform="translate(-42.234 -0.149)" fill="#707070"/>
    <path id="Path_4" data-name="Path 4" d="M1855.494-21.035c-.005.212-.163.348-.423.364a1.582,1.582,0,0,0-1.373.838,2.514,2.514,0,0,0-.224.764c-.045.256-.157.418-.368.424s-.363-.157-.381-.429a1.664,1.664,0,0,0-1.607-1.6c-.26-.017-.417-.155-.419-.368s.156-.357.411-.374a1.663,1.663,0,0,0,1.615-1.614c.018-.257.159-.414.373-.413s.352.158.369.417a1.664,1.664,0,0,0,1.619,1.61C1855.34-21.4,1855.5-21.247,1855.494-21.035Z" transform="translate(-233.337 -0.149)" fill="#707070"/>
  </g>
</svg>
