<svg xmlns="http://www.w3.org/2000/svg" width="28.146" height="20.332" viewBox="0 0 28.146 20.332">
  <g id="Group_4" data-name="Group 4" transform="translate(-1884.326 540.182)">
    <path id="Path_8" data-name="Path 8" d="M1884.326-537.175c.848.288,1.7.572,2.544.864a3.408,3.408,0,0,0,1.9.288,3.435,3.435,0,0,0,.991-.369,21.816,21.816,0,0,1,3.988-2.014,3.531,3.531,0,0,1,3.276.391,2.838,2.838,0,0,1,.278.224,1.552,1.552,0,0,1,.125.138l-.263.156c-1.123.655-2.26,1.287-3.365,1.971a2.77,2.77,0,0,0-1.249,3.3,2.756,2.756,0,0,0,3.863,1.6c.876-.437,1.777-.824,2.666-1.233a1.8,1.8,0,0,1,2.357.429l5.151,5.155a1.247,1.247,0,0,1,.078,1.774,1.246,1.246,0,0,1-1.794,0c-.561-.528-1.112-1.064-1.675-1.59a4.548,4.548,0,0,0-.443-.326l-.067.067a4.87,4.87,0,0,0,.315.458c.509.59,1.028,1.17,1.54,1.757a1.2,1.2,0,0,1,.261,1.3,1.158,1.158,0,0,1-1.021.764,1.324,1.324,0,0,1-1.043-.4q-1.07-.948-2.153-1.881c-.171-.147-.366-.267-.55-.4l-.061.047a1.075,1.075,0,0,0,.132.227q.632.65,1.274,1.29c.214.213.446.409.662.621a1.254,1.254,0,0,1,.091,1.833,1.254,1.254,0,0,1-1.815-.066c-.589-.577-1.176-1.157-1.769-1.73-.148-.143-.319-.264-.479-.4l-.069.058a4.051,4.051,0,0,0,.266.386c.439.505.887,1,1.328,1.5a1.251,1.251,0,0,1-.014,1.8,1.232,1.232,0,0,1-1.714-.031,7.816,7.816,0,0,1-.559-.606.369.369,0,0,1-.076-.242,2.78,2.78,0,0,0-1.811-2.981.407.407,0,0,1-.2-.222,2.772,2.772,0,0,0-1.665-1.786.415.415,0,0,1-.206-.222,2.746,2.746,0,0,0-1.605-1.67.454.454,0,0,1-.223-.238,2.78,2.78,0,0,0-2.968-1.82,3.043,3.043,0,0,0-2.655,1.963.87.87,0,0,1-.06.1l-1.511-.5Z" transform="translate(0 -1.433)" fill="#707070"/>
    <path id="Path_9" data-name="Path 9" d="M2033.089-529.132c-.991.166-1.962.347-2.94.488a2.054,2.054,0,0,1-1.813-.652q-2.827-2.811-5.673-5.6a1.658,1.658,0,0,0-1.966-.373c-1.2.579-2.384,1.2-3.576,1.809-.212.108-.423.221-.643.308a1.681,1.681,0,0,1-2.266-1.223,1.4,1.4,0,0,1,.7-1.5c.635-.416,1.29-.8,1.951-1.179,1.649-.933,3.317-1.834,4.957-2.782a2.032,2.032,0,0,1,2.535.213c1.029.855,2.049,1.72,3.069,2.585a1.4,1.4,0,0,0,1.254.322c1.422-.3,2.843-.619,4.264-.93.044-.01.089-.014.15-.024Z" transform="translate(-120.617)" fill="#707070"/>
    <path id="Path_10" data-name="Path 10" d="M1924.357-378.2c-.3.07-.573.141-.847.2a1.094,1.094,0,0,1-1.3-1.479,5.319,5.319,0,0,0,.2-.6c-.232.061-.427.116-.625.164a1.082,1.082,0,0,1-1.344-.508.976.976,0,0,1-.1-.843c.073-.225.153-.447.243-.711-.23.061-.427.117-.626.166a1.159,1.159,0,0,1-1.522-1.168,2.48,2.48,0,0,1,1.513-2.169,1.491,1.491,0,0,1,2.022,1.721,1.042,1.042,0,0,0-.007.132,1.674,1.674,0,0,1,1.483.4,1.577,1.577,0,0,1,.332,1.5,1.61,1.61,0,0,1,1.534.442,1.55,1.55,0,0,1,.263,1.59.665.665,0,0,0,.162.008,1.421,1.421,0,0,1,1.628.621,1.566,1.566,0,0,1-.056,1.786,2.46,2.46,0,0,1-2.415.962,1.117,1.117,0,0,1-.838-1.453C1924.136-377.689,1924.249-377.927,1924.357-378.2Z" transform="translate(-31.682 -143.912)" fill="#707070"/>
  </g>
</svg>
